<svg width="194" height="101" viewBox="0 0 194 101" fill="none" xmlns="http://www.w3.org/2000/svg">
<path d="M141.022 7.66762C143.835 5.63795 146.987 3.8177 150.512 3.4472C152.225 3.09282 154.068 3.39888 155.556 4.33317C156.429 4.89696 157.237 5.81514 157.075 6.92663C157.269 8.29585 156.267 9.39122 156.073 10.696C155.992 11.0826 155.944 11.4853 155.717 11.8236C155.41 11.8397 154.99 11.9686 154.796 11.6786C154.715 10.9054 154.861 10.1161 154.764 9.34289C154.456 8.47304 153.761 7.79648 153.018 7.29712C151.53 6.4917 149.768 6.41116 148.103 6.58835C146.519 6.92663 144.902 7.29712 143.447 8.022C142.477 8.56969 141.475 9.06905 140.65 9.82615C137.126 12.7579 134.216 16.334 131.532 20.0228C127.587 25.4836 124.063 31.2504 120.668 37.0494C118.275 41.2215 115.818 45.3614 113.506 49.5657C113.021 50.3389 112.617 51.1282 112.245 51.9659C114.088 50.4033 115.867 48.7603 117.677 47.1494C118.34 46.6823 118.017 45.8285 118.178 45.152C118.696 44.4271 119.553 44.0566 120.28 43.5895C120.749 43.2512 121.331 43.4284 121.864 43.5089C122.948 42.929 123.95 42.2202 124.855 41.3826C125.809 40.5127 126.892 39.7556 127.862 38.9019C128.671 38.2092 129.56 37.5971 130.352 36.8883C130.918 36.4373 131.5 35.9702 132.163 35.6641C132.68 35.5191 133.068 35.9702 133.327 36.3568C133.585 36.695 133.521 37.1461 133.488 37.5327C132.858 38.2253 131.888 38.3864 131.096 38.8214C128.493 40.2067 126.165 42.0108 123.853 43.7989C123.142 44.411 122.317 44.9104 121.703 45.6352C121.541 46.7306 122.188 47.7293 122.188 48.8086C122.705 51.3054 123.449 53.7539 124.564 56.0413C124.985 56.9273 125.955 57.4749 126.908 57.5555C128.509 57.7005 129.851 56.6695 131.096 55.7997C132.082 54.9942 133.165 54.2371 133.844 53.1579C135.816 49.308 138.823 46.0218 142.299 43.4606C143.77 42.4296 145.29 41.3665 147.02 40.8349C147.828 40.6094 148.604 40.3194 149.396 40.0778C150.108 39.8362 150.916 40.1584 151.595 39.804C152.193 39.2885 152.516 38.4509 153.292 38.1609C154.295 37.7743 155.362 37.4521 156.461 37.3877C156.429 37.6777 156.493 37.9998 156.251 38.2092C155.782 38.7086 155.41 39.3046 155.119 39.9328C155.96 39.9973 156.881 39.9006 157.609 40.4C157.9 40.5933 157.835 40.996 157.9 41.3021C157.528 41.5115 157.124 41.6887 156.704 41.5115C155.911 41.2537 155.103 41.2215 154.279 41.2537C153.082 43.1868 152.064 45.2325 150.948 47.2139C149.461 49.9684 148.054 52.7874 147.036 55.7352C146.745 56.734 146.454 57.781 146.551 58.8442C146.567 59.3757 146.971 59.859 147.505 59.9395C148.701 60.1167 149.897 59.7462 150.964 59.263C152.759 58.3931 154.359 57.1689 155.911 55.9285C158.951 53.319 161.812 50.4839 164.302 47.3427C164.512 47.1011 164.755 46.8273 165.078 46.7467C165.353 46.8111 165.611 46.9883 165.773 47.2139C165.886 47.5682 165.595 47.8582 165.385 48.0998C163.93 49.7751 162.475 51.4343 160.923 53.0129C159.209 54.7848 157.302 56.3635 155.378 57.926C153.406 59.3435 151.385 60.7933 149.041 61.5021C148.071 61.9048 147.036 61.9209 146.001 61.8887C144.918 61.9209 143.657 61.3571 143.366 60.2456C143.204 59.5852 142.913 58.9569 142.946 58.2643C142.913 57.1367 143.398 56.0735 143.754 55.0265C143.722 54.8815 143.657 54.5915 143.625 54.4466C141.62 56.5407 139.438 58.5381 136.835 59.8751C135.913 60.3423 134.879 60.6966 133.828 60.5355C133.23 60.4228 132.809 59.9556 132.357 59.6013C132.454 59.6335 132.631 59.6818 132.728 59.714C132.518 59.4885 132.243 59.263 132.292 58.9247C132.324 58.1515 132.163 57.3139 132.47 56.5729C131.435 57.0561 130.691 57.9421 129.754 58.5542C128.557 59.408 127.183 59.9556 125.777 60.3584C124.209 60.7289 122.349 60.2295 121.396 58.8764C120.07 56.9434 119.666 54.5754 119.084 52.3363C119.003 51.2893 118.583 50.3067 118.534 49.2596C118.534 49.0341 118.405 48.8408 118.259 48.6797C117.435 49.1308 116.917 49.9523 116.19 50.5161C115.301 51.1926 114.67 52.1108 113.878 52.8679C111.809 54.8976 109.95 57.1689 108.462 59.6657C108.22 60.1006 107.88 60.6322 107.298 60.5839C106.571 60.6322 106.118 59.9073 105.811 59.3435C105.779 58.4414 105.504 57.3783 106.134 56.6212C107.234 55.0748 108.042 53.3673 108.963 51.7242C112.164 46.0702 115.511 40.4966 118.954 34.9714C120.248 32.7807 121.735 30.7188 123.142 28.6086C126.019 24.3721 129.042 20.2483 132.292 16.2856C133.828 14.6909 135.315 12.9995 136.932 11.437C138.257 10.1483 139.502 8.73077 141.022 7.66762ZM148.054 41.9464C145.532 43.1545 143.512 45.1842 141.733 47.2944C140.246 49.2113 138.936 51.2732 137.74 53.3834C137.255 54.7204 136.722 56.0413 136.398 57.4266C136.382 57.6521 136.237 57.9904 136.544 58.071C136.899 58.1515 137.271 58.0548 137.578 57.8454C139.341 56.7501 140.973 55.4614 142.412 53.9794C144.562 51.8853 146.26 49.3885 147.828 46.8434C148.669 45.458 149.348 43.9922 150.205 42.623C150.496 42.1719 150.738 41.7048 150.932 41.2054C149.962 41.3343 148.96 41.4954 148.054 41.9464Z" fill="#EF4723"/>
<path d="M66.6066 24.8714C67.1563 24.8875 67.6736 24.7103 68.2233 24.7264C70.0501 24.7264 71.8769 24.6781 73.6876 24.7264C74.1403 24.7264 74.5606 24.9197 74.9809 25.0647C74.9648 25.4191 74.9648 25.7735 74.884 26.1279C74.2535 26.4339 73.5098 26.5467 72.9763 27.0138C70.422 29.124 67.9323 31.3148 65.4426 33.5055C64.5049 34.2787 63.6804 35.1808 62.7266 35.954C61.1261 37.3071 59.6226 38.7569 58.0383 40.1422C53.4793 44.1854 48.9526 48.2609 44.5068 52.433C43.0679 53.6894 41.7746 55.0909 40.3681 56.3634C39.3819 57.2172 38.5089 58.1676 37.5551 59.0374C36.2941 60.1328 35.1624 61.3732 33.9014 62.4685C32.5111 63.7733 31.0884 65.0298 29.7466 66.3829C29.0838 67.0594 28.2916 67.6071 27.7419 68.3965C27.3054 69.0247 26.7558 69.5724 26.4163 70.2489C26.4971 70.7483 27.0953 70.8449 27.4994 71.0221C32.9153 72.4558 38.4119 73.5995 43.9248 74.6626C45.0241 74.6465 46.0264 75.1298 47.1258 75.1459C47.8371 75.1459 48.4838 75.4842 49.1951 75.4842C49.9064 75.5003 50.6339 75.613 51.3129 75.8063C52.2668 76.0963 53.2853 75.8386 54.2391 76.1607C56.0174 76.6923 57.909 76.2413 59.7196 76.5634C62.1608 76.9339 64.6505 76.7084 67.1078 76.789C67.8838 76.8856 68.5951 76.4346 69.3711 76.4507C70.228 76.4507 71.0201 76.1285 71.8608 75.9996C74.4313 75.3553 76.9371 74.1472 78.7478 72.1819C79.9603 70.9899 80.9465 69.5885 81.6578 68.0421C82.1266 66.9306 82.5146 65.7708 82.7895 64.5949C82.9026 64.0794 83.0966 63.58 83.3068 63.0807C83.5978 63.129 83.905 63.1773 84.196 63.2417C84.1798 64.0633 84.2445 64.9009 84.1636 65.7224C83.3068 68.6542 82.0943 71.5215 80.2998 74.0183C78.8125 76.2252 76.8886 78.2709 74.399 79.3341C72.944 79.8335 71.4728 80.2684 69.9531 80.51C69.2418 80.7355 68.4981 80.655 67.7706 80.6711C66.5096 80.655 65.2163 80.7516 63.9715 80.4939C63.0984 80.3489 62.2093 80.3489 61.3201 80.3006C60.0268 79.9945 58.685 79.9623 57.4078 79.5757C56.3893 79.4952 55.4193 79.1247 54.417 79.0119C52.9134 78.577 51.3453 78.3837 49.8256 77.9649C49.1466 77.7232 48.4029 77.7716 47.7239 77.5138C43.8763 76.6762 40.0609 75.7741 36.2133 74.9687C35.4373 74.6949 34.6128 74.7271 33.8529 74.4532C33.3518 74.2921 32.8344 74.2599 32.3333 74.1472C31.3309 73.825 30.2639 73.8089 29.2616 73.4545C28.0653 73.374 26.9336 72.8585 25.7211 72.9068C24.7834 72.7135 23.8781 72.4236 22.9081 72.4236C22.0028 72.1819 21.0651 72.3591 20.1598 72.1819C19.3838 72.0692 18.6078 72.1658 17.8318 72.0692C16.8618 71.9242 15.8756 72.037 14.9218 71.8275C14.2104 71.8437 13.4829 71.7953 12.8848 71.3604C12.8848 71.006 12.8848 70.6677 12.8848 70.3134C13.2889 70.2006 13.6931 70.0234 14.1134 70.0395C15.3583 70.0234 16.7163 69.8784 17.7024 69.0569C18.8179 68.1709 19.9011 67.2528 21.0004 66.3507C25.1714 62.8229 29.3909 59.3435 33.4973 55.7513C35.4211 54.1405 37.2964 52.4491 39.2364 50.8382C40.3358 49.7751 41.5968 48.9052 42.6799 47.8098C44.0056 46.6178 45.3313 45.4097 46.6893 44.2499C49.5508 41.5114 52.5416 38.918 55.3384 36.1312C57.5371 33.9727 59.7519 31.798 61.7889 29.4784C62.4356 28.673 63.3248 27.9964 63.5349 26.9333C62.9206 26.7722 62.3224 26.5145 61.6758 26.5467C61.0129 26.4984 60.3824 26.7078 59.7358 26.6917C57.6826 26.6917 55.6294 26.6917 53.5924 26.7239C51.8949 26.9494 50.1651 26.7883 48.4514 26.885C47.6431 27.0138 46.8186 27.0299 46.0103 27.1588C43.7308 27.1588 41.4836 27.5937 39.2203 27.7065C38.3634 27.8676 37.5066 28.1092 36.6498 28.1898C35.1139 28.5764 33.5619 29.0435 32.2039 29.8811C31.6381 30.2194 31.2016 30.751 30.6034 31.0409C30.2154 31.1698 29.9891 30.7993 29.7789 30.5416C29.6334 29.9939 30.0214 29.5106 30.2316 29.0435C30.7974 27.9965 31.2824 26.7561 32.3979 26.1601C33.5296 25.6446 34.7906 25.8057 35.9869 25.5963C36.8438 25.548 37.7006 25.5963 38.5574 25.5319C39.8831 25.3386 41.2249 25.4835 42.5506 25.3708C43.6823 25.1453 44.8624 25.3386 45.9941 25.113C50.0843 25.0647 54.1906 25.0647 58.2808 25.0647C58.9274 25.0808 59.5741 24.9197 60.2208 24.9197C62.3063 24.8714 64.4564 24.8553 66.6066 24.8714Z" fill="#EF4723"/>
<path d="M83.5009 37.5166C83.7757 37.4521 84.0667 37.4683 84.3415 37.4521C84.2769 38.4187 83.323 38.9986 82.9512 39.8523C83.7272 40.1261 84.6325 39.9651 85.3439 40.4483C85.748 40.6094 85.5864 41.1249 85.5864 41.4793C85.1337 41.5598 84.6487 41.5276 84.196 41.4309C83.5009 41.2699 82.7734 41.3343 82.062 41.3182C79.8148 45.4419 77.4222 49.5013 75.5953 53.8344C75.1265 55.0265 74.5607 56.2024 74.4313 57.4911C74.3828 58.0387 74.1403 58.5864 74.2858 59.118C74.496 59.6657 74.981 60.2295 75.6277 60.149C77.503 60.149 79.1843 59.1341 80.7363 58.1998C82.3207 57.2655 83.6787 56.0091 85.0852 54.8332C86.1684 53.7861 87.397 52.8679 88.2377 51.5954C89.8705 49.163 91.3902 46.6662 92.9907 44.2177C93.5565 43.3639 94.0415 42.3974 94.9145 41.8175C95.7875 41.4148 96.7737 41.4148 97.7114 41.4793C97.7599 41.8498 97.8245 42.2525 97.5982 42.5907C96.418 44.862 95.0762 47.0367 93.7505 49.2435C92.4895 51.3215 91.0184 53.3512 90.4525 55.7513C90.4202 56.1863 90.2262 56.8306 90.7274 57.0883C91.3417 57.3622 91.9722 56.9273 92.538 56.734C93.993 56.2185 95.2864 55.3003 96.3049 54.1405C96.8869 53.4317 97.3395 52.6263 97.7922 51.837C99.4574 48.6797 101.171 45.5386 102.933 42.4297C103.628 41.3182 104.291 40.11 105.358 39.2885C105.698 38.9502 106.361 38.9825 106.587 39.4335C107.25 40.1745 107.331 41.2215 107.201 42.1719C107.153 42.4297 106.991 42.6552 106.878 42.8807C105.003 45.9091 102.788 48.712 100.67 51.5632C99.4574 53.029 98.3742 54.5593 97.3719 56.1541C92.5865 63.4995 88.0922 71.0544 82.8703 78.1099C80.8333 80.8966 78.7155 83.619 76.3713 86.148C75.1588 87.5172 73.8493 88.8059 72.459 89.9979C71.3597 90.8839 70.1633 91.6571 69.0802 92.5914C67.7707 93.7512 66.1863 94.5244 64.6343 95.2815C62.8075 96.2963 60.7867 96.9245 58.7173 97.2467C58.1192 97.3917 57.4887 97.4239 56.8743 97.44C55.0798 97.6978 53.2045 97.3595 51.5717 96.6024C50.44 95.8936 49.2437 94.9754 48.888 93.6223C48.8072 92.3336 48.8395 91.045 48.8557 89.7563C48.8395 89.1925 49.1628 88.677 49.5185 88.2582C49.7287 88.2582 49.9873 88.2099 50.1005 88.4193C50.4723 89.0314 50.1167 89.8046 50.3915 90.4489C50.8927 91.7537 51.701 93.0424 52.9458 93.7512C53.6087 94.1217 54.223 94.5566 54.9505 94.7982C56.0175 94.8788 57.1007 94.8143 58.1677 94.8304C58.9437 94.8627 59.6873 94.621 60.4472 94.5244C61.4818 94.4599 62.4357 94.0411 63.3895 93.719C64.6182 93.3324 65.7013 92.6397 66.8168 92.0276C71.4567 89.273 75.3043 85.3748 78.6832 81.2027C80.4292 79.0119 82.1428 76.789 83.7919 74.5338C87.5102 69.1697 90.9537 63.5962 94.2517 57.9582C94.284 57.7488 94.3002 57.5233 94.3164 57.3139C93.314 57.9099 92.2794 58.5381 91.1477 58.8603C89.9675 58.9569 88.7227 59.2791 87.591 58.7958C86.9767 58.4898 86.3139 57.9421 86.3462 57.185C86.33 56.6212 86.3785 56.0574 86.1845 55.5097C84.9235 56.589 83.614 57.5877 82.3368 58.6509C80.5262 59.8912 78.6347 61.0832 76.5168 61.6954C76.0157 61.8887 75.466 61.8403 74.9487 61.8564C74.2535 61.8403 73.5422 61.8887 72.847 61.8242C72.0225 61.5343 71.295 60.906 70.9878 60.0845C70.8908 58.9408 70.8908 57.7649 71.004 56.6212C71.2788 55.7997 71.5213 54.9781 71.7962 54.1566C71.5537 54.3821 71.295 54.5915 71.0202 54.7848C70.228 55.3325 69.743 56.1863 69.0155 56.7984C67.4473 58.1998 65.7498 59.5207 63.7775 60.2778C63.0338 60.6161 62.2093 60.5194 61.4172 60.4872C60.334 60.2295 59.8813 58.9891 59.9783 57.9904C60.0753 57.2978 60.2208 56.6212 60.4148 55.9446C61.3687 53.1418 62.9368 50.5644 64.8768 48.3092C66.9785 45.8446 69.4358 43.67 72.2327 42.0431C73.5907 41.2054 75.0942 40.6416 76.6138 40.2228C77.5192 39.8684 78.5215 40.1745 79.4268 39.804C79.831 39.3046 80.1543 38.7086 80.7202 38.3703C81.6417 37.8871 82.5955 37.7421 83.5009 37.5166ZM75.0295 42.3491C72.4913 43.96 70.3412 46.1185 68.5305 48.5025C67.0432 50.8544 65.6043 53.2545 64.6343 55.8802C64.2948 56.589 64.3918 57.3783 64.408 58.1354C65.378 58.0549 66.1217 57.3783 66.9138 56.8789C67.4797 56.5084 68.1425 56.2829 68.6275 55.7997C70.0825 54.0761 71.7477 52.5297 73.0895 50.7255C74.7547 48.4381 76.1773 45.9896 77.5353 43.525C77.9395 42.8002 78.4407 42.1075 78.667 41.286C77.3737 41.2537 76.1612 41.7853 75.0295 42.3491Z" fill="#EF4723"/>
<path d="M154.165 64.2083C154.634 64.2083 155.119 64.2083 155.588 64.2083C155.604 64.6271 155.604 65.062 155.604 65.4808C155.119 65.4808 154.634 65.4969 154.149 65.4808C154.149 65.0459 154.165 64.6271 154.165 64.2083Z" fill="black"/>
<path d="M163.833 64.5143C164.108 64.015 164.738 64.2083 165.159 64.3532C165.159 64.7237 165.159 65.1103 165.159 65.4969C164.722 65.4969 164.286 65.4969 163.849 65.4969C163.801 65.1748 163.542 64.7882 163.833 64.5143Z" fill="black"/>
<path d="M115.01 65.497C114.799 65.046 114.783 64.4661 115.268 64.1761C115.656 64.16 115.996 64.3533 116.303 64.5788C116.303 64.8849 116.465 65.3037 116.093 65.4648C115.737 65.497 115.381 65.497 115.01 65.497Z" fill="black"/>
<path d="M111.162 63.7411C111.566 63.7411 112.035 63.5961 112.358 63.9344C112.585 64.2727 112.617 64.6754 112.585 65.062C112.358 66.6084 112.504 68.187 112.455 69.7334C112.358 71.0543 112.795 72.3913 112.439 73.7122C111.501 73.6961 110.58 73.7444 109.642 73.68C108.22 73.3739 106.765 72.5524 106.312 71.0865C106.199 70.2167 106.215 69.2824 106.765 68.5575C107.363 67.7521 108.268 67.2366 109.157 66.8339C109.804 66.705 110.483 66.7373 111.113 66.544C111.194 65.6097 111.146 64.6754 111.162 63.7411ZM108.268 68.5575C107.686 69.2985 107.282 70.4583 107.929 71.296C108.559 72.4236 109.949 72.633 111.113 72.7618C111.437 71.1349 111.275 69.4596 111.275 67.8004C110.257 67.4944 109.06 67.881 108.268 68.5575Z" fill="black"/>
<path d="M94.4941 64.5627C94.7689 64.1438 95.3509 64.3694 95.7874 64.3533C95.8197 67.4622 95.7712 70.5872 95.8036 73.6962C95.3671 73.8572 94.8982 73.8895 94.5102 73.6156C94.4779 72.6008 94.4617 71.5698 94.5264 70.555C94.7042 69.8623 94.6234 69.1536 94.4941 68.4609C94.4941 67.1722 94.4941 65.8675 94.4941 64.5627Z" fill="black"/>
<path d="M141.491 64.5305C142.364 64.4338 143.253 64.4983 144.126 64.4821C144.158 64.6916 144.239 65.0943 144.271 65.3037C143.026 65.2715 141.749 65.4648 140.634 66.0608C139.583 66.7051 138.742 67.8327 138.823 69.1053C138.823 70.3939 139.728 71.5376 140.876 72.0692C141.943 72.6169 143.188 72.6008 144.352 72.8424C144.352 73.1324 144.336 73.4223 144.336 73.7123C143.317 73.6962 142.267 73.825 141.313 73.4223C139.874 73.1002 138.532 72.1981 137.853 70.8772C137.578 70.4423 137.659 69.9107 137.643 69.4274C137.675 68.5898 137.497 67.6877 137.999 66.9467C138.661 65.6097 140.1 64.9332 141.491 64.5305Z" fill="black"/>
<path d="M115.042 66.7534C115.333 66.238 115.915 66.5762 116.27 66.834C116.335 69.1053 116.319 71.3927 116.287 73.664C115.866 74.0184 115.333 73.7767 114.88 73.664C114.945 73.4385 115.042 73.2129 115.026 72.9874C115.042 70.9094 115.009 68.8314 115.042 66.7534Z" fill="black"/>
<path d="M150.77 66.7695C151.029 66.3023 151.724 66.4634 152.031 66.7695C152.064 69.073 152.015 71.3765 152.047 73.68C151.676 73.6961 151.304 73.7605 150.948 73.68C150.786 73.5189 150.657 73.3578 150.528 73.1806C149.752 73.535 148.927 73.8411 148.087 74.0022C147.424 73.9699 146.696 73.6639 146.357 73.0679C145.872 72.2786 145.856 71.2798 146.017 70.3939C146.098 69.1374 146.001 67.881 146.05 66.6245C146.421 66.6245 146.809 66.6084 147.181 66.5923C147.23 66.8339 147.294 67.0755 147.311 67.3333C147.133 68.8958 147.181 70.4744 147.391 72.0208C147.488 72.198 147.618 72.3752 147.747 72.5202C148.766 72.7457 149.881 72.5041 150.689 71.8275C150.835 70.1522 150.689 68.4609 150.77 66.7695Z" fill="black"/>
<path d="M154.294 66.5923C154.65 66.5923 155.022 66.5923 155.378 66.6406C155.685 66.9628 155.572 67.4138 155.588 67.8165C155.556 69.7495 155.604 71.6826 155.555 73.6156C155.184 73.8894 154.715 73.8411 154.278 73.8411C154.278 71.4248 154.294 69.0086 154.294 66.5923Z" fill="black"/>
<path d="M167.567 67.1883C167.454 66.5601 168.263 66.6084 168.683 66.5762C168.861 66.8017 169.022 67.0433 169.216 67.285C170.073 66.7856 171.076 66.4956 172.078 66.6567C173.08 66.8822 173.792 67.9615 173.695 68.9602C173.678 70.5872 173.695 72.2303 173.678 73.8572C173.258 73.7767 172.838 73.7284 172.401 73.7122C172.369 72.343 172.434 70.9738 172.369 69.6046C172.288 68.9925 172.304 68.0904 171.528 67.9454C170.623 67.9132 169.572 67.9937 168.893 68.6542C168.845 70.3456 168.893 72.0531 168.877 73.7445C168.44 73.7606 168.004 73.7445 167.584 73.7445C167.584 71.5376 167.584 69.3629 167.567 67.1883Z" fill="black"/>
<path d="M177.833 66.689C178.852 66.5118 180.097 66.6084 180.776 67.4944C181.341 68.2515 181.697 69.218 181.649 70.1684C180.21 70.1684 178.787 70.1845 177.348 70.1684C177.106 70.1684 176.847 70.1523 176.637 70.2811C176.508 71.1188 177.17 71.7953 177.801 72.2464C178.771 72.8102 179.935 72.7618 181.018 72.7457C181.018 73.0679 181.034 73.3901 181.034 73.6961C180.307 73.9216 179.547 73.8572 178.819 73.7444C177.267 73.6317 175.699 72.5363 175.376 70.9577C175.279 70.0234 175.263 68.9925 175.812 68.1871C176.265 67.4622 176.944 66.7856 177.833 66.689ZM177.833 67.736C177.332 68.026 176.928 68.477 176.75 69.0247C177.882 69.0569 179.03 69.0569 180.177 69.0247C180.064 68.6703 180.032 68.2515 179.692 68.0421C179.207 67.5266 178.448 67.7199 177.833 67.736Z" fill="black"/>
<path d="M98.6974 66.834C98.8914 66.5118 99.2955 66.6246 99.6189 66.6085C99.8775 66.7212 99.926 67.0595 100.072 67.2689C100.524 67.14 100.945 66.9306 101.381 66.7856C102.125 66.7212 102.868 66.7051 103.612 66.8018C104.049 67.1239 104.582 67.5427 104.534 68.1388C104.566 70.0073 104.534 71.8759 104.55 73.7445C104.162 73.7606 103.774 73.7445 103.386 73.7284C103.386 72.2464 103.386 70.7483 103.386 69.2663C103.37 68.7187 103.176 67.9616 102.513 67.9132C101.672 67.8971 100.686 67.9616 100.023 68.5415C99.9584 70.2329 100.039 71.9403 99.9907 73.6478C99.6027 73.9378 99.1339 73.8734 98.7135 73.7123C98.6974 71.4088 98.6812 69.1214 98.6974 66.834Z" fill="black"/>
<path d="M126.019 66.995C126.003 66.5278 126.553 66.56 126.892 66.6084C127.167 66.7856 127.377 67.0272 127.636 67.2366C128.557 66.8017 129.56 66.4312 130.594 66.6567C131.225 66.9466 131.904 67.5265 131.855 68.2836C131.855 70.0878 131.904 71.8919 131.823 73.6961C131.451 73.68 131.079 73.6639 130.707 73.6639C130.691 72.198 130.707 70.7321 130.707 69.2502C130.691 68.8474 130.659 68.3803 130.352 68.0903C130.012 67.897 129.608 67.6715 129.22 67.8165C128.573 67.9776 127.911 68.0742 127.361 68.4608C127.28 70.2006 127.345 71.9403 127.345 73.68C126.924 73.6961 126.488 73.7122 126.068 73.6639C125.987 71.457 126.035 69.2179 126.019 66.995Z" fill="black"/>
<path d="M159.031 66.8178C159.92 66.544 160.874 66.544 161.78 66.7051C161.763 67.0111 161.763 67.3011 161.763 67.6071C160.874 67.6394 159.759 67.3655 159.128 68.1871C158.692 68.5253 159.161 68.9925 159.468 69.2019C160.26 69.7174 161.278 69.959 161.86 70.7644C162.216 71.7631 161.731 72.9713 160.761 73.4223C160.228 73.7928 159.549 73.7123 158.934 73.7284C158.417 73.7284 157.916 73.7284 157.398 73.68C157.431 73.4706 157.512 73.0518 157.56 72.8424C158.433 72.9068 159.306 72.7941 160.131 72.488C160.438 72.343 160.761 72.0531 160.761 71.6987C160.535 70.9577 159.71 70.7483 159.096 70.4261C158.433 70.1201 157.706 69.5885 157.722 68.7831C157.576 67.9132 158.271 67.1561 159.031 66.8178Z" fill="black"/>
<path d="M164.011 66.6085C164.382 66.6246 164.884 66.4635 165.126 66.834C165.158 69.1214 165.11 71.4088 165.142 73.6801C164.754 73.7123 164.366 73.7123 163.962 73.7123C164.011 71.3605 163.93 68.9764 164.011 66.6085Z" fill="black"/>
<path d="M119.035 66.7373C120.037 66.7373 121.04 66.7051 122.026 66.7856C123.06 67.1239 123.853 68.1549 123.772 69.2663C123.756 70.7322 123.82 72.2142 123.739 73.6801C123.271 73.9378 122.737 73.8572 122.22 73.8895C121.007 73.8572 119.601 74.0989 118.663 73.1485C117.952 72.6491 118 71.6826 118.162 70.9094C118.679 70.0879 119.617 69.6368 120.538 69.3952C121.201 69.3147 121.848 69.1858 122.511 69.1375C122.381 68.7348 122.268 68.2515 121.88 68.026C121.056 67.3978 119.989 67.6394 119.035 67.6072C119.035 67.3011 119.035 67.0112 119.035 66.7373ZM120.053 70.7C119.682 70.8772 119.423 71.2316 119.326 71.6182C119.164 71.9565 119.568 72.2464 119.779 72.4558C120.522 73.1163 121.557 72.8102 122.462 72.8746C122.478 71.9564 122.495 71.0544 122.446 70.1362C121.654 70.2973 120.797 70.3295 120.053 70.7Z" fill="black"/>
</svg>
