<svg width="25" height="38" viewBox="0 0 25 38" fill="none" xmlns="http://www.w3.org/2000/svg">
<path d="M10.25 3.32005C5.40998 6.80005 1.37997 11.6201 0.309975 17.6601C-0.760025 23.7001 0.819975 31.0701 5.80997 34.9101C10.34 38.4001 19.25 38.1301 22.69 33.2001C23.921 31.4494 24.5325 29.338 24.4274 27.2004C24.3224 25.0628 23.5068 23.0215 22.11 21.4001C20.6147 19.7273 18.5585 18.6601 16.33 18.4001C13.5 18.0601 10.48 18.7601 7.96997 17.0501C3.69997 14.1701 7.28998 9.30005 10.13 6.73005C13.35 3.83005 17.93 1.79005 17.06 0.130054C16.71 -0.539946 12.73 1.54005 10.25 3.32005Z" fill="#F96300"/>
</svg>
