<svg width="167" height="169" viewBox="0 0 167 169" fill="none" xmlns="http://www.w3.org/2000/svg">
<path d="M155.95 100.7C155.464 102.32 155.609 103.885 156.395 105.156L157.622 104.47C157.015 103.415 156.908 102.314 157.252 101.17C157.958 98.8224 160.177 97.5903 162.483 98.2787C164.789 98.9671 165.963 101.212 165.257 103.559C164.913 104.703 164.232 105.569 163.142 106.118L163.789 107.363C165.147 106.732 166.117 105.5 166.599 103.895C167.551 100.73 166.01 97.7123 162.93 96.7929C159.85 95.8735 156.897 97.5505 155.95 100.7Z" fill="#9F9F9F"/>
<path d="M160.746 120.1L156.585 117.975L159.435 112.425L163.595 114.55L164.304 113.169L154.628 108.227L153.919 109.607L158.232 111.81L155.382 117.361L151.07 115.158L150.361 116.538L160.037 121.481L160.746 120.1Z" fill="#9F9F9F"/>
<path d="M149.11 122.455L151.954 124.507L148.756 128.92L149.826 129.691L153.023 125.279L155.729 127.231L152.139 132.184L153.234 132.974L157.734 126.764L148.926 120.408L144.298 126.794L145.393 127.584L149.11 122.455Z" fill="#9F9F9F"/>
<path d="M144.238 141.791L145.209 142.728L150.549 137.22L142.739 129.676L141.658 130.79L144.815 133.841L141.021 137.754L141.981 138.681L145.775 134.768L148.497 137.398L144.238 141.791Z" fill="#9F9F9F"/>
<path d="M129.933 142.061C127.561 143.683 127.265 145.614 128.203 146.983C130.456 150.27 134.955 145.184 136.455 147.371C136.99 148.152 136.774 149.238 135.248 150.282C134.453 150.825 133.41 151.2 132.286 151.236L132.564 152.549C133.659 152.552 134.942 152.088 135.993 151.369C138.353 149.756 138.623 147.842 137.676 146.461C135.397 143.135 130.906 148.234 129.407 146.047C128.872 145.267 129.127 144.21 130.678 143.149C131.833 142.36 133.272 142.014 134.351 142.159L134.141 140.837C132.967 140.663 131.305 141.123 129.933 142.061Z" fill="#9F9F9F"/>
<path d="M124.823 158.564L128.674 156.786L124.119 146.934L122.708 147.586L124.088 150.569L121.647 151.696C119.08 152.881 118.127 154.892 119.116 157.032C120.105 159.171 122.256 159.749 124.823 158.564ZM122.256 152.901L124.654 151.794L126.697 156.213L124.299 157.32C122.494 158.154 121.178 157.788 120.527 156.38C119.876 154.973 120.45 153.734 122.256 152.901Z" fill="#9F9F9F"/>
<path d="M111.761 154.346L112.725 157.715L107.482 159.215L107.845 160.482L113.088 158.982L114.005 162.187L108.119 163.871L108.49 165.168L115.87 163.056L112.884 152.621L105.296 154.793L105.667 156.09L111.761 154.346Z" fill="#9F9F9F"/>
<path d="M97.3622 156.739C95.679 156.924 94.2915 157.67 93.4247 158.889L94.5349 159.749C95.2725 158.779 96.2462 158.25 97.4353 158.119C99.8752 157.85 101.874 159.408 102.136 161.797C102.398 164.186 100.783 166.143 98.3435 166.412C97.1544 166.543 96.0913 166.254 95.1612 165.468L94.2637 166.55C95.3736 167.55 96.8877 167.961 98.5555 167.777C101.845 167.414 104.03 164.817 103.68 161.627C103.331 158.436 100.636 156.378 97.3622 156.739Z" fill="#9F9F9F"/>
<path d="M90.3499 157.685L88.7974 157.743L89.1938 168.591L90.7463 168.532L90.3499 157.685Z" fill="#9F9F9F"/>
<path d="M76.593 157.472L74.9762 157.258L78.4328 168.667L79.9572 168.868L86.2784 158.752L84.6924 158.542L83.1467 161.076L77.4187 160.319L76.593 157.472ZM82.4432 162.235L79.4126 167.2L77.793 161.62L82.4432 162.235Z" fill="#9F9F9F"/>
<path d="M72.4796 157.307L65.3073 155.337L64.9473 156.638L70.6223 158.197L68.0859 167.362L69.5832 167.774L72.4796 157.307Z" fill="#9F9F9F"/>
<path d="M50.7318 149.734C49.2852 148.857 47.7309 148.605 46.3002 149.045L46.6541 150.403C47.831 150.081 48.925 150.254 49.9469 150.874C52.0438 152.145 52.6761 154.598 51.4246 156.653C50.1731 158.708 47.6999 159.278 45.603 158.007C44.581 157.387 43.915 156.511 43.6586 155.321L42.2873 155.634C42.5553 157.103 43.5041 158.35 44.9374 159.219C47.7643 160.932 51.0804 160.201 52.7518 157.457C54.4231 154.713 53.5454 151.44 50.7318 149.734Z" fill="#9F9F9F"/>
<path d="M30.7451 149.517L33.8603 146.032L38.5176 150.18L35.4024 153.665L36.5609 154.697L43.8055 146.593L42.647 145.561L39.418 149.173L34.7607 145.025L37.9897 141.413L36.8311 140.381L29.5866 148.485L30.7451 149.517Z" fill="#9F9F9F"/>
<path d="M31.3539 137.638L28.6376 139.861L25.183 135.654L24.1614 136.49L27.6159 140.697L25.0317 142.813L21.154 138.09L20.1083 138.946L24.9703 144.867L33.3838 137.98L28.3841 131.891L27.3384 132.747L31.3539 137.638Z" fill="#9F9F9F"/>
<path d="M13.9233 128.103L12.7661 128.802L16.7312 135.356L26.0416 129.737L25.239 128.41L21.4749 130.682L18.6576 126.025L17.5138 126.715L20.331 131.372L17.0857 133.331L13.9233 128.103Z" fill="#9F9F9F"/>
<path d="M17.3626 114.329C16.3941 111.629 14.5983 110.856 13.0333 111.417C9.27437 112.765 13.0591 118.392 10.5581 119.288C9.66589 119.608 8.66758 119.126 8.04458 117.389C7.71999 116.485 7.62202 115.383 7.87309 114.288L6.53024 114.226C6.24884 115.282 6.37207 116.638 6.80137 117.835C7.76466 120.52 9.55002 121.264 11.1296 120.698C14.9324 119.335 11.133 113.713 13.6341 112.816C14.5263 112.496 15.4859 113.009 16.1194 114.775C16.5906 116.088 16.5592 117.566 16.144 118.571L17.4786 118.702C17.946 117.612 17.9228 115.891 17.3626 114.329Z" fill="#9F9F9F"/>
<path d="M2.57913 104.993L3.31369 109.161L14.0237 107.269L13.7546 105.742L10.511 106.315L10.0455 103.673C9.55581 100.894 7.85224 99.4633 5.52664 99.8742C3.20104 100.285 2.08942 102.214 2.57913 104.993ZM8.7225 103.954L9.17992 106.55L4.37572 107.399L3.9183 104.803C3.57389 102.849 4.26571 101.672 5.79571 101.401C7.32571 101.131 8.37809 102 8.7225 103.954Z" fill="#9F9F9F"/>
<path d="M10.0032 93.7597L6.49311 93.8384L6.37707 88.3966L5.05691 88.4261L5.17295 93.8679L1.83372 93.9427L1.70347 87.8343L0.352244 87.8645L0.515562 95.5233L11.3875 95.2798L11.2195 87.404L9.86829 87.4342L10.0032 93.7597Z" fill="#9F9F9F"/>
<path d="M11.3234 79.3022C11.5726 77.63 11.2036 76.1019 10.2436 74.957L9.12694 75.8115C9.87934 76.769 10.1433 77.8427 9.9673 79.024C9.6061 81.4479 7.58694 82.9847 5.20526 82.6337C2.82358 82.2827 1.33937 80.2296 1.70057 77.8057C1.8766 76.6244 2.42699 75.6708 3.42628 74.9714L2.60684 73.8316C1.3542 74.6504 0.57078 76.0087 0.323882 77.6655C-0.163055 80.9332 1.79596 83.6991 4.97665 84.1678C8.15734 84.6366 10.8388 82.5546 11.3234 79.3022Z" fill="#9F9F9F"/>
<path d="M12.2172 72.1117L12.5588 70.5985L1.95079 68.2231L1.6091 69.7363L12.2172 72.1117Z" fill="#9F9F9F"/>
<path d="M15.9578 58.8085L16.5783 57.3019L4.64225 57.7468L4.05721 59.1673L12.2407 67.8337L12.8494 66.3558L10.7902 64.2215L12.9886 58.8838L15.9578 58.8085ZM9.8477 63.2486L5.81219 59.0643L11.6324 58.9154L9.8477 63.2486Z" fill="#9F9F9F"/>
<path d="M17.1218 54.9628L20.8498 48.5299L19.6802 47.8553L16.7304 52.9453L8.48893 48.1922L7.71064 49.5352L17.1218 54.9628Z" fill="#9F9F9F"/>
<path d="M27.2798 38.9766C28.4309 37.7356 28.9907 36.2653 28.8463 34.7785L27.4421 34.8553C27.5212 36.0702 27.1318 37.1059 26.3186 37.9826C24.65 39.7815 22.1156 39.9132 20.3497 38.2812C18.5838 36.6492 18.5206 34.1168 20.1891 32.3179C21.0023 31.4413 21.9955 30.9636 23.2152 30.949L23.1839 29.5456C21.6877 29.5162 20.2735 30.1968 19.1329 31.4264C16.8835 33.8515 16.9353 37.2402 19.2936 39.4197C21.652 41.5993 25.0409 41.3903 27.2798 38.9766Z" fill="#9F9F9F"/>
<path d="M31.6646 19.3026L34.4474 23.0506L29.4287 26.7664L26.6459 23.0184L25.3975 23.9427L31.869 32.659L33.1175 31.7347L30.233 27.8497L35.2517 24.1339L38.1362 28.0189L39.3846 27.0946L32.913 18.3783L31.6646 19.3026Z" fill="#9F9F9F"/>
<path d="M42.9037 22.4591L41.2644 19.3618L46.0861 16.8147L45.4695 15.6498L40.6478 18.1969L39.0882 15.2504L44.5007 12.3912L43.8696 11.1988L37.0834 14.7837L42.1611 24.3771L49.1396 20.6906L48.5085 19.4983L42.9037 22.4591Z" fill="#9F9F9F"/>
<path d="M55.5992 7.32219L55.1437 6.05248L47.9185 8.64248L51.5832 18.8586L53.0458 18.3343L51.5642 14.2041L56.6979 12.3638L56.2477 11.1087L51.114 12.9489L49.8365 9.38791L55.5992 7.32219Z" fill="#9F9F9F"/>
<path d="M69.1203 13.1899C71.9663 12.7876 73.0906 11.188 72.8594 9.54511C72.3041 5.59903 66.0126 8.16389 65.6431 5.53829C65.5113 4.60167 66.1879 3.72306 68.0186 3.46431C68.9724 3.32949 70.0727 3.45584 71.0954 3.92203L71.4302 2.62192C70.4515 2.13386 69.0964 1.98089 67.8349 2.15918C65.0043 2.55927 63.9108 4.15452 64.1441 5.81279C64.7059 9.80494 70.9953 7.22472 71.3647 9.85032C71.4965 10.7869 70.7981 11.6217 68.9367 11.8848C67.5521 12.0805 66.1095 11.7519 65.208 11.1433L64.8073 12.4214C65.7812 13.0981 67.4742 13.4225 69.1203 13.1899Z" fill="#9F9F9F"/>
<path d="M80.8159 0.623769L76.5766 0.510644L76.2735 11.3621L77.8264 11.4035L77.9182 8.11708L80.6047 8.18877C83.4309 8.26418 85.1789 6.88358 85.2447 4.52727C85.3105 2.17096 83.6422 0.699186 80.8159 0.623769ZM80.5957 6.83885L77.9558 6.7684L78.0918 1.90076L80.7317 1.9712C82.7194 2.02424 83.7351 2.93562 83.6918 4.48583C83.6485 6.03603 82.5834 6.89188 80.5957 6.83885Z" fill="#9F9F9F"/>
<path d="M90.4137 10.1111L91.046 6.66296L96.4096 7.63718L96.6474 6.34031L91.2838 5.3661L91.8854 2.08581L97.906 3.17937L98.1494 1.85199L90.6008 0.480881L88.6422 11.1609L96.4048 12.5709L96.6482 11.2435L90.4137 10.1111Z" fill="#9F9F9F"/>
<path d="M104.533 14.3363C106.123 14.9143 107.697 14.859 109.015 14.1492L108.402 12.8864C107.31 13.4307 106.203 13.4742 105.08 13.0659C102.774 12.228 101.674 9.94633 102.5 7.68755C103.326 5.42877 105.641 4.38788 107.947 5.22571C109.07 5.63401 109.895 6.36288 110.379 7.47988L111.663 6.90647C111.113 5.51785 109.939 4.48021 108.363 3.90751C105.254 2.77804 102.144 4.14071 101.041 7.15728C99.9382 10.1739 101.439 13.2122 104.533 14.3363Z" fill="#9F9F9F"/>
<path d="M111.382 16.639L112.799 17.2739L117.263 7.37025L115.846 6.7353L111.382 16.639Z" fill="#9F9F9F"/>
<path d="M123.642 22.9118L124.998 23.8164L126.945 12.0508L125.667 11.1979L115.524 17.4925L116.853 18.3799L119.36 16.7869L124.162 19.9919L123.642 22.9118ZM120.504 16.0569L125.418 12.9352L124.401 18.6588L120.504 16.0569Z" fill="#9F9F9F"/>
<path d="M127.226 24.8416L132.793 29.7635L133.69 28.753L129.285 24.8587L135.603 17.7388L134.44 16.7113L127.226 24.8416Z" fill="#9F9F9F"/>
</svg>
